<mxfile host="app.diagrams.net" modified="2023-12-18T01:52:19.341Z" agent="Mozilla/5.0 (Windows NT 10.0; Win64; x64) AppleWebKit/537.36 (KHTML, like Gecko) Chrome/120.0.0.0 Safari/537.36" etag="T9FzNwLkej5Geact09X-" version="22.1.11" type="github">
  <diagram name="第 1 页" id="PPGM_jvPmuT8LZWkXBkn">
    <mxGraphModel dx="1763" dy="474" grid="1" gridSize="10" guides="1" tooltips="1" connect="1" arrows="1" fold="1" page="1" pageScale="1" pageWidth="827" pageHeight="1169" math="0" shadow="0">
      <root>
        <mxCell id="0" />
        <mxCell id="1" parent="0" />
        <mxCell id="_I4gQ5q0O5wpezI2B0FQ-1" value="" style="rounded=0;whiteSpace=wrap;html=1;fillColor=#f5f5f5;fontColor=#333333;strokeColor=#666666;" vertex="1" parent="1">
          <mxGeometry x="-30" y="70" width="840" height="380" as="geometry" />
        </mxCell>
        <mxCell id="_I4gQ5q0O5wpezI2B0FQ-19" style="edgeStyle=orthogonalEdgeStyle;rounded=0;orthogonalLoop=1;jettySize=auto;html=1;exitX=0;exitY=0.5;exitDx=0;exitDy=0;entryX=1;entryY=0.75;entryDx=0;entryDy=0;endArrow=ERmany;endFill=0;" edge="1" parent="1" source="_I4gQ5q0O5wpezI2B0FQ-2" target="_I4gQ5q0O5wpezI2B0FQ-15">
          <mxGeometry relative="1" as="geometry" />
        </mxCell>
        <mxCell id="_I4gQ5q0O5wpezI2B0FQ-2" value="pbi ads_anc_dtc_member_growth_f" style="swimlane;fontStyle=0;childLayout=stackLayout;horizontal=1;startSize=30;horizontalStack=0;resizeParent=1;resizeParentMax=0;resizeLast=0;collapsible=1;marginBottom=0;whiteSpace=wrap;html=1;" vertex="1" parent="1">
          <mxGeometry x="250" y="130" width="220" height="90" as="geometry" />
        </mxCell>
        <mxCell id="_I4gQ5q0O5wpezI2B0FQ-17" value="to_level" style="text;strokeColor=none;fillColor=default;align=left;verticalAlign=middle;spacingLeft=4;spacingRight=4;overflow=hidden;points=[[0,0.5],[1,0.5]];portConstraint=eastwest;rotatable=0;whiteSpace=wrap;html=1;" vertex="1" parent="_I4gQ5q0O5wpezI2B0FQ-2">
          <mxGeometry y="30" width="220" height="30" as="geometry" />
        </mxCell>
        <mxCell id="_I4gQ5q0O5wpezI2B0FQ-3" value="createdat" style="text;strokeColor=none;fillColor=default;align=left;verticalAlign=middle;spacingLeft=4;spacingRight=4;overflow=hidden;points=[[0,0.5],[1,0.5]];portConstraint=eastwest;rotatable=0;whiteSpace=wrap;html=1;" vertex="1" parent="_I4gQ5q0O5wpezI2B0FQ-2">
          <mxGeometry y="60" width="220" height="30" as="geometry" />
        </mxCell>
        <mxCell id="_I4gQ5q0O5wpezI2B0FQ-5" style="edgeStyle=orthogonalEdgeStyle;rounded=0;orthogonalLoop=1;jettySize=auto;html=1;exitX=0;exitY=1;exitDx=0;exitDy=0;entryX=1;entryY=0.5;entryDx=0;entryDy=0;endArrow=ERmany;endFill=0;" edge="1" parent="1" source="_I4gQ5q0O5wpezI2B0FQ-6" target="_I4gQ5q0O5wpezI2B0FQ-12">
          <mxGeometry relative="1" as="geometry" />
        </mxCell>
        <mxCell id="_I4gQ5q0O5wpezI2B0FQ-6" value="pbi dim_pub_period" style="swimlane;fontStyle=0;childLayout=stackLayout;horizontal=1;startSize=30;horizontalStack=0;resizeParent=1;resizeParentMax=0;resizeLast=0;collapsible=1;marginBottom=0;whiteSpace=wrap;html=1;" vertex="1" parent="1">
          <mxGeometry x="560" y="130" width="210" height="60" as="geometry" />
        </mxCell>
        <mxCell id="_I4gQ5q0O5wpezI2B0FQ-7" value="date_dt" style="text;align=left;verticalAlign=middle;spacingLeft=4;spacingRight=4;overflow=hidden;points=[[0,0.5],[1,0.5]];portConstraint=eastwest;rotatable=0;whiteSpace=wrap;html=1;fillColor=default;" vertex="1" parent="_I4gQ5q0O5wpezI2B0FQ-6">
          <mxGeometry y="30" width="210" height="30" as="geometry" />
        </mxCell>
        <mxCell id="_I4gQ5q0O5wpezI2B0FQ-8" style="edgeStyle=orthogonalEdgeStyle;rounded=0;orthogonalLoop=1;jettySize=auto;html=1;exitX=0;exitY=0.5;exitDx=0;exitDy=0;entryX=1;entryY=0.5;entryDx=0;entryDy=0;endArrow=ERmany;endFill=0;" edge="1" parent="1" source="_I4gQ5q0O5wpezI2B0FQ-7">
          <mxGeometry relative="1" as="geometry">
            <Array as="points">
              <mxPoint x="530" y="205" />
            </Array>
            <mxPoint x="470" y="205" as="targetPoint" />
          </mxGeometry>
        </mxCell>
        <mxCell id="_I4gQ5q0O5wpezI2B0FQ-9" value="ANCDTC_会员BI报表" style="text;html=1;strokeColor=none;fillColor=none;align=center;verticalAlign=middle;whiteSpace=wrap;rounded=0;" vertex="1" parent="1">
          <mxGeometry x="293.5" y="80" width="133" height="30" as="geometry" />
        </mxCell>
        <mxCell id="_I4gQ5q0O5wpezI2B0FQ-11" value="pbi ads_anc_dtc_member_payment_behavior_f" style="swimlane;fontStyle=0;childLayout=stackLayout;horizontal=1;startSize=30;horizontalStack=0;resizeParent=1;resizeParentMax=0;resizeLast=0;collapsible=1;marginBottom=0;whiteSpace=wrap;html=1;" vertex="1" parent="1">
          <mxGeometry x="230" y="240" width="260" height="90" as="geometry" />
        </mxCell>
        <mxCell id="_I4gQ5q0O5wpezI2B0FQ-12" value="pay_date" style="text;strokeColor=none;fillColor=default;align=left;verticalAlign=middle;spacingLeft=4;spacingRight=4;overflow=hidden;points=[[0,0.5],[1,0.5]];portConstraint=eastwest;rotatable=0;whiteSpace=wrap;html=1;" vertex="1" parent="_I4gQ5q0O5wpezI2B0FQ-11">
          <mxGeometry y="30" width="260" height="30" as="geometry" />
        </mxCell>
        <mxCell id="_I4gQ5q0O5wpezI2B0FQ-25" value="customer_id" style="text;strokeColor=none;fillColor=default;align=left;verticalAlign=middle;spacingLeft=4;spacingRight=4;overflow=hidden;points=[[0,0.5],[1,0.5]];portConstraint=eastwest;rotatable=0;whiteSpace=wrap;html=1;" vertex="1" parent="_I4gQ5q0O5wpezI2B0FQ-11">
          <mxGeometry y="60" width="260" height="30" as="geometry" />
        </mxCell>
        <mxCell id="_I4gQ5q0O5wpezI2B0FQ-15" value="Target" style="swimlane;fontStyle=0;childLayout=stackLayout;horizontal=1;startSize=30;horizontalStack=0;resizeParent=1;resizeParentMax=0;resizeLast=0;collapsible=1;marginBottom=0;whiteSpace=wrap;html=1;" vertex="1" parent="1">
          <mxGeometry x="-10" y="130" width="220" height="60" as="geometry" />
        </mxCell>
        <mxCell id="_I4gQ5q0O5wpezI2B0FQ-16" value="level" style="text;strokeColor=none;fillColor=default;align=left;verticalAlign=middle;spacingLeft=4;spacingRight=4;overflow=hidden;points=[[0,0.5],[1,0.5]];portConstraint=eastwest;rotatable=0;whiteSpace=wrap;html=1;" vertex="1" parent="_I4gQ5q0O5wpezI2B0FQ-15">
          <mxGeometry y="30" width="220" height="30" as="geometry" />
        </mxCell>
        <mxCell id="_I4gQ5q0O5wpezI2B0FQ-20" value="Target1" style="swimlane;fontStyle=0;childLayout=stackLayout;horizontal=1;startSize=30;horizontalStack=0;resizeParent=1;resizeParentMax=0;resizeLast=0;collapsible=1;marginBottom=0;whiteSpace=wrap;html=1;" vertex="1" parent="1">
          <mxGeometry x="-10" y="240" width="220" height="60" as="geometry" />
        </mxCell>
        <mxCell id="_I4gQ5q0O5wpezI2B0FQ-21" value="level" style="text;strokeColor=none;fillColor=default;align=left;verticalAlign=middle;spacingLeft=4;spacingRight=4;overflow=hidden;points=[[0,0.5],[1,0.5]];portConstraint=eastwest;rotatable=0;whiteSpace=wrap;html=1;" vertex="1" parent="_I4gQ5q0O5wpezI2B0FQ-20">
          <mxGeometry y="30" width="220" height="30" as="geometry" />
        </mxCell>
        <mxCell id="_I4gQ5q0O5wpezI2B0FQ-22" style="edgeStyle=orthogonalEdgeStyle;rounded=0;orthogonalLoop=1;jettySize=auto;html=1;exitX=0;exitY=0.5;exitDx=0;exitDy=0;entryX=1;entryY=0.75;entryDx=0;entryDy=0;endArrow=ERmany;endFill=0;" edge="1" parent="1" source="_I4gQ5q0O5wpezI2B0FQ-12" target="_I4gQ5q0O5wpezI2B0FQ-20">
          <mxGeometry relative="1" as="geometry" />
        </mxCell>
        <mxCell id="_I4gQ5q0O5wpezI2B0FQ-23" value="member_payment_copy" style="swimlane;fontStyle=0;childLayout=stackLayout;horizontal=1;startSize=30;horizontalStack=0;resizeParent=1;resizeParentMax=0;resizeLast=0;collapsible=1;marginBottom=0;whiteSpace=wrap;html=1;" vertex="1" parent="1">
          <mxGeometry x="230" y="350" width="260" height="60" as="geometry" />
        </mxCell>
        <mxCell id="_I4gQ5q0O5wpezI2B0FQ-24" value="customer_id" style="text;strokeColor=none;fillColor=default;align=left;verticalAlign=middle;spacingLeft=4;spacingRight=4;overflow=hidden;points=[[0,0.5],[1,0.5]];portConstraint=eastwest;rotatable=0;whiteSpace=wrap;html=1;" vertex="1" parent="_I4gQ5q0O5wpezI2B0FQ-23">
          <mxGeometry y="30" width="260" height="30" as="geometry" />
        </mxCell>
        <mxCell id="_I4gQ5q0O5wpezI2B0FQ-26" style="rounded=0;orthogonalLoop=1;jettySize=auto;html=1;exitX=0;exitY=0.5;exitDx=0;exitDy=0;entryX=0;entryY=0.5;entryDx=0;entryDy=0;edgeStyle=orthogonalEdgeStyle;endArrow=ERmany;endFill=0;startArrow=ERmany;startFill=0;" edge="1" parent="1" source="_I4gQ5q0O5wpezI2B0FQ-25" target="_I4gQ5q0O5wpezI2B0FQ-24">
          <mxGeometry relative="1" as="geometry" />
        </mxCell>
        <mxCell id="_I4gQ5q0O5wpezI2B0FQ-27" value="pbi ads_anc_dtc_member_detail_f" style="swimlane;fontStyle=0;childLayout=stackLayout;horizontal=1;startSize=30;horizontalStack=0;resizeParent=1;resizeParentMax=0;resizeLast=0;collapsible=1;marginBottom=0;whiteSpace=wrap;html=1;" vertex="1" parent="1">
          <mxGeometry x="530" y="340" width="260" height="60" as="geometry" />
        </mxCell>
        <mxCell id="_I4gQ5q0O5wpezI2B0FQ-28" value="*" style="text;strokeColor=none;fillColor=default;align=left;verticalAlign=middle;spacingLeft=4;spacingRight=4;overflow=hidden;points=[[0,0.5],[1,0.5]];portConstraint=eastwest;rotatable=0;whiteSpace=wrap;html=1;" vertex="1" parent="_I4gQ5q0O5wpezI2B0FQ-27">
          <mxGeometry y="30" width="260" height="30" as="geometry" />
        </mxCell>
      </root>
    </mxGraphModel>
  </diagram>
</mxfile>
